<svg id="visual" viewBox="0 0 960 540" width="960" height="540" xmlns="http://www.w3.org/2000/svg" xmlns:xlink="http://www.w3.org/1999/xlink" version="1.1"><rect x="0" y="0" width="960" height="540" fill="#F7CACA"></rect><defs><linearGradient id="grad1_0" x1="43.8%" y1="0%" x2="100%" y2="100%"><stop offset="14.444444444444446%" stop-color="#009473" stop-opacity="1"></stop><stop offset="85.55555555555554%" stop-color="#009473" stop-opacity="1"></stop></linearGradient></defs><defs><linearGradient id="grad1_1" x1="43.8%" y1="0%" x2="100%" y2="100%"><stop offset="14.444444444444446%" stop-color="#009473" stop-opacity="1"></stop><stop offset="85.55555555555554%" stop-color="#f7caca" stop-opacity="1"></stop></linearGradient></defs><defs><linearGradient id="grad2_0" x1="0%" y1="0%" x2="56.3%" y2="100%"><stop offset="14.444444444444446%" stop-color="#009473" stop-opacity="1"></stop><stop offset="85.55555555555554%" stop-color="#009473" stop-opacity="1"></stop></linearGradient></defs><defs><linearGradient id="grad2_1" x1="0%" y1="0%" x2="56.3%" y2="100%"><stop offset="14.444444444444446%" stop-color="#f7caca" stop-opacity="1"></stop><stop offset="85.55555555555554%" stop-color="#009473" stop-opacity="1"></stop></linearGradient></defs><g transform="translate(960, 0)"><path d="M0 378C-32.2 367 -64.5 355.9 -91.1 340C-117.7 324.1 -138.7 303.4 -169.5 293.6C-200.3 283.8 -240.8 285 -267.3 267.3C-293.8 249.6 -306.2 212.9 -310.9 179.5C-315.6 146.1 -312.7 115.8 -322.6 86.4C-332.5 57.1 -355.3 28.5 -378 0L0 0Z" fill="#b9aa75"></path><path d="M0 189C-16.1 183.5 -32.2 178 -45.6 170C-58.9 162.1 -69.4 151.7 -84.7 146.8C-100.1 141.9 -120.4 142.5 -133.6 133.6C-146.9 124.8 -153.1 106.5 -155.5 89.8C-157.8 73 -156.4 57.9 -161.3 43.2C-166.3 28.5 -177.6 14.3 -189 0L0 0Z" fill="#009473"></path></g><g transform="translate(0, 540)"><path d="M0 -378C34.9 -376.4 69.8 -374.9 95.8 -357.4C121.7 -339.9 138.7 -306.5 169 -292.7C199.3 -279 242.9 -284.9 267.3 -267.3C291.7 -249.7 297 -208.7 304 -175.5C311 -142.3 319.7 -117 332.3 -89C344.9 -61.1 361.5 -30.5 378 0L0 0Z" fill="#b9aa75"></path><path d="M0 -189C17.5 -188.2 34.9 -187.4 47.9 -178.7C60.9 -170 69.4 -153.2 84.5 -146.4C99.6 -139.5 121.4 -142.4 133.6 -133.6C145.9 -124.9 148.5 -104.3 152 -87.8C155.5 -71.2 159.8 -58.5 166.1 -44.5C172.5 -30.5 180.7 -15.3 189 0L0 0Z" fill="#009473"></path></g></svg>