<svg id="visual" viewBox="0 0 960 540" width="960" height="540" xmlns="http://www.w3.org/2000/svg" xmlns:xlink="http://www.w3.org/1999/xlink" version="1.1"><rect x="0" y="0" width="960" height="540" fill="#F7CACA"></rect><g transform="translate(502.3521883803527 245.4751238249895)"><path d="M99.6 -113.2C127.1 -95.5 146.3 -62.3 159.6 -22.8C172.9 16.7 180.4 62.6 165.7 102.7C150.9 142.8 113.9 177.1 74.9 180.3C35.8 183.6 -5.4 155.7 -42.1 134.3C-78.9 112.9 -111.3 97.9 -147.9 68.8C-184.5 39.7 -225.2 -3.6 -217.5 -36.8C-209.8 -70.1 -153.8 -93.3 -109.5 -107.9C-65.1 -122.6 -32.6 -128.8 1.7 -130.9C36 -132.9 72 -130.8 99.6 -113.2" fill="#009473"></path></g></svg>